<?xml version="1.0" standalone="no"?><!DOCTYPE svg PUBLIC "-//W3C//DTD SVG 1.1//EN" "http://www.w3.org/Graphics/SVG/1.1/DTD/svg11.dtd"><svg t="1693227560651" class="icon" viewBox="0 0 1024 1024" version="1.1" xmlns="http://www.w3.org/2000/svg" p-id="2396" xmlns:xlink="http://www.w3.org/1999/xlink" width="200" height="200"><path d="M512 160C317.5936 160 160 317.5936 160 512S317.5936 864 512 864 864 706.4064 864 512 706.4064 160 512 160z m0 64c159.0528 0 288 128.9472 288 288S671.0528 800 512 800 224 671.0528 224 512 352.9472 224 512 224z" fill="#FB553C" p-id="2397"></path><path d="M683.3408 501.248H340.6592a25.6 25.6 0 0 0-25.6 26.112l0.1536 6.912a196.9408 196.9408 0 0 0 393.728-7.3984 25.6 25.6 0 0 0-25.6-25.6z m-27.8784 51.2l-0.3072 1.792A145.7664 145.7664 0 0 1 512 672.5888l-5.7088-0.1024a145.8176 145.8176 0 0 1-137.2928-117.4272l-0.4864-2.6112h286.9504z" fill="#FB553C" p-id="2398"></path><path d="M411.1104 411.4432m-38.7584 0a38.7584 38.7584 0 1 0 77.5168 0 38.7584 38.7584 0 1 0-77.5168 0Z" fill="#FB553C" p-id="2399"></path><path d="M612.8896 411.4432m-38.7584 0a38.7584 38.7584 0 1 0 77.5168 0 38.7584 38.7584 0 1 0-77.5168 0Z" fill="#FB553C" p-id="2400"></path></svg>